<?xml version="1.0" encoding="UTF-8" standalone="no"?>
<svg
   xmlns:dc="http://purl.org/dc/elements/1.1/"
   xmlns:cc="http://creativecommons.org/ns#"
   xmlns:rdf="http://www.w3.org/1999/02/22-rdf-syntax-ns#"
   xmlns:svg="http://www.w3.org/2000/svg"
   xmlns="http://www.w3.org/2000/svg"
   xmlns:sodipodi="http://sodipodi.sourceforge.net/DTD/sodipodi-0.dtd"
   xmlns:inkscape="http://www.inkscape.org/namespaces/inkscape"
   version="1.1"
   viewBox="0 0 128 128"
   xml:space="preserve"
   id="svg3857"
   sodipodi:docname="microsoftsqlserver-plain-wordmark.svg"
   inkscape:version="0.92.5 (2060ec1f9f, 2020-04-08)"><metadata
   id="metadata3863"><rdf:RDF><cc:Work
       rdf:about=""><dc:format>image/svg+xml</dc:format><dc:type
         rdf:resource="http://purl.org/dc/dcmitype/StillImage" /></cc:Work></rdf:RDF></metadata><defs
   id="defs3861" /><sodipodi:namedview
   pagecolor="#ffffff"
   bordercolor="#666666"
   borderopacity="1"
   objecttolerance="10"
   gridtolerance="10"
   guidetolerance="10"
   inkscape:pageopacity="0"
   inkscape:pageshadow="2"
   inkscape:window-width="2048"
   inkscape:window-height="1073"
   id="namedview3859"
   showgrid="false"
   inkscape:zoom="6.703125"
   inkscape:cx="87.123543"
   inkscape:cy="64"
   inkscape:window-x="-9"
   inkscape:window-y="-9"
   inkscape:window-maximized="1"
   inkscape:current-layer="svg3857" />
<g
   id="g3855"
   style="fill:#808080"
   transform="matrix(1.0956491,0,0,1.1223368,-6.9823366,-9.6172161)">
	<path
   d="m 75.39,15.31 c -0.2,0.06 -1.25,0.41 -2.36,0.77 -5.94,1.94 -10.15,4.19 -11.19,5.98 -0.4,0.68 -0.47,1.24 -0.24,1.79 0.26,0.62 0.74,1.1 2.06,2.03 0.62,0.44 1.67,1.34 2.36,2.02 3.27,3.26 4.85,7.26 4.67,11.78 -0.2,5.09 -2.59,10.18 -7.15,15.26 -1.59,1.78 -3.23,3.26 -6.36,5.77 -2.61,2.09 -4.03,3.45 -5,4.76 -2.97,4.04 -2.17,7.64 2.35,10.65 3.99,2.66 11.02,4.87 19.32,6.07 2.78,0.4 5.92,0.66 6.68,0.55 l 0.53,-0.08 0.83,-1.5 c 4.21,-7.57 6.33,-14.72 6.59,-22.11 0.11,-3.3 -0.3,-7.2 -1.01,-9.48 -0.13,-0.41 -0.22,-0.76 -0.21,-0.77 0.01,-0.01 1.19,-0.37 2.61,-0.79 7.49,-2.23 14.74,-3.99 20.73,-5.03 1.17,-0.2 2.16,-0.41 2.21,-0.46 0.32,-0.31 -0.61,-1.77 -2.13,-3.33 -5.6,-5.78 -15.5,-10.18 -27.12,-12.06 -2.24,-0.36 -2.51,-0.49 -3.34,-1.59 -1.32,-1.75 -2.56,-4.73 -4.25,-10.2 -0.05,-0.18 -0.1,-0.18 -0.58,-0.03 z m 0.77,2.06 c 0.65,1.78 1.05,3.17 1.05,3.66 v 0.39 L 76.66,21.36 C 73.67,21.01 68.89,20.27 67.87,20 c -0.26,-0.07 -0.41,-0.17 -0.36,-0.25 0.08,-0.12 1.09,-0.61 4.11,-1.98 2.81,-1.28 3.88,-1.75 3.97,-1.76 0.04,-0.01 0.29,0.61 0.57,1.36 z m -6.33,3.75 c 3.65,0.77 6.32,1.25 6.9,1.25 0.57,0 0.51,0.05 -2.18,1.69 -2.07,1.26 -2.31,1.38 -2.83,1.38 h -0.57 l -1.54,-1.55 c -1.86,-1.88 -3.12,-3.26 -3.12,-3.42 0,-0.06 0.04,-0.08 0.09,-0.05 0.05,0.01 1.52,0.33 3.25,0.7 z m -2.7,1.73 c 0.9,1.05 1.59,1.93 1.55,1.96 -0.08,0.07 -2.64,-0.56 -4.2,-1.04 -1.37,-0.42 -1.53,-0.56 -1.17,-1.03 0.24,-0.31 2,-1.78 2.13,-1.79 0.04,0 0.79,0.85 1.69,1.9 z m 11.66,2.16 c 0.36,0.85 0.63,1.54 0.62,1.55 -0.02,0.01 -4.82,-0.73 -5.24,-0.81 -0.09,-0.02 0.72,-0.57 1.82,-1.24 1.1,-0.67 2.02,-1.17 2.07,-1.12 0.05,0.05 0.37,0.77 0.73,1.62 z m -10.47,1.62 c 0.09,0.09 1.24,3.78 1.19,3.83 -0.02,0.02 -0.56,-0.61 -1.21,-1.41 -0.65,-0.8 -1.63,-1.93 -2.2,-2.51 l -1.02,-1.07 1.58,0.55 c 0.88,0.29 1.62,0.57 1.66,0.61 z m 4.59,0.49 c 1.99,0.28 3.64,0.54 3.67,0.57 0.03,0.03 -1.18,0.97 -2.67,2.08 -1.5,1.11 -2.73,2.01 -2.75,1.99 -0.02,-0.02 -0.17,-0.48 -0.34,-1.04 -0.17,-0.55 -0.59,-1.7 -0.94,-2.56 -0.35,-0.86 -0.63,-1.56 -0.61,-1.56 0.01,0 1.65,0.24 3.64,0.52 z m 5,1.59 c 0.44,1.03 0.61,2.01 0.68,3.98 0.04,1.06 0.04,1.92 0.01,1.92 -0.04,0 -0.67,-0.22 -1.4,-0.48 -1.46,-0.53 -4.32,-1.47 -4.66,-1.54 -0.15,-0.03 0.54,-0.69 2.36,-2.25 1.41,-1.22 2.61,-2.21 2.67,-2.21 0.05,0 0.2,0.26 0.34,0.58 z m 5.13,0.25 c 2.2,0.45 4.13,0.85 4.28,0.89 0.22,0.05 -0.31,0.38 -2.64,1.66 -1.6,0.88 -3.42,1.88 -4.04,2.23 -0.62,0.35 -1.14,0.62 -1.15,0.61 -0.01,-0.01 0.05,-0.34 0.14,-0.73 0.33,-1.43 0.12,-3.21 -0.54,-4.63 -0.19,-0.41 -0.35,-0.78 -0.35,-0.8 0.01,-0.11 0.41,-0.03 4.3,0.77 z m 6.01,2.69 c -0.11,0.5 -0.36,1.35 -0.55,1.9 -0.42,1.21 -1.96,4.36 -2.17,4.44 -0.08,0.03 -0.81,-0.3 -1.6,-0.74 -0.79,-0.44 -1.94,-1.02 -2.54,-1.29 l -1.1,-0.49 4.03,-2.59 c 3.34,-2.14 4.04,-2.55 4.08,-2.36 0.03,0.13 -0.04,0.63 -0.15,1.13 z M 92,30.73 c 4.18,1.2 8.6,2.82 8.34,3.06 -0.05,0.05 -0.6,0.23 -1.21,0.4 -3.16,0.89 -7.55,2.41 -9.6,3.32 -0.64,0.28 -1.19,0.49 -1.22,0.45 -0.03,-0.03 0.22,-0.95 0.56,-2.05 0.66,-2.16 1.43,-5.07 1.43,-5.44 0,-0.16 0.06,-0.22 0.21,-0.18 0.1,0.04 0.77,0.24 1.49,0.44 z m -17.99,4.34 c 0.95,0.31 2.07,0.74 2.48,0.95 0.74,0.37 0.75,0.38 0.54,0.61 -0.38,0.42 -4.53,4.29 -4.65,4.33 -0.06,0.02 -0.11,-0.56 -0.11,-1.41 0,-1.47 -0.17,-4.13 -0.3,-4.72 -0.1,-0.45 -0.02,-0.44 2.04,0.24 z m 26.56,0.77 c -0.91,1.51 -2.42,3.66 -3.5,5.02 -1.11,1.39 -3.46,4 -3.6,4 -0.05,0 -0.39,-0.42 -0.76,-0.94 -1.34,-1.91 -2.89,-3.56 -4.25,-4.52 -0.13,-0.09 -0.21,-0.19 -0.18,-0.22 0.03,-0.03 2.26,-0.85 4.95,-1.83 5.44,-1.97 7.84,-2.77 7.99,-2.67 0.02,0.01 -0.27,0.53 -0.65,1.16 z m 3.4,-0.26 c 3.76,2.62 6.31,4.74 7.23,6.01 0.23,0.32 0.4,0.59 0.38,0.61 -0.02,0.02 -1.23,0.15 -2.69,0.3 -5.83,0.57 -9.98,1.16 -12.18,1.72 -0.59,0.15 -1.08,0.26 -1.09,0.25 -0.01,-0.01 0.38,-0.49 0.87,-1.08 2.54,-3.05 4.84,-6.22 5.69,-7.87 0.23,-0.44 0.45,-0.79 0.49,-0.79 0.05,0 0.63,0.38 1.3,0.85 z m -21.04,3.25 c 0.72,0.39 1.27,0.74 1.24,0.8 -0.06,0.11 -6.39,3.58 -6.45,3.53 -0.01,-0.01 0.31,-1.05 0.73,-2.32 0.42,-1.27 0.82,-2.65 0.9,-3.07 l 0.14,-0.77 1.07,0.57 c 0.59,0.31 1.65,0.87 2.37,1.26 z m -5.31,0.2 c -0.61,2.12 -1.85,4.86 -2.42,5.33 -0.13,0.11 -0.39,-0.04 -1.22,-0.72 -0.59,-0.47 -1.19,-0.94 -1.35,-1.05 -0.15,-0.11 -0.27,-0.22 -0.24,-0.25 0.44,-0.43 5.48,-4.5 5.51,-4.44 0.01,0.04 -0.11,0.55 -0.28,1.13 z m 11.48,3.69 c 0.95,0.64 3.07,2.53 2.96,2.65 -0.03,0.03 -2.18,0.73 -4.77,1.55 -2.59,0.82 -5.48,1.75 -6.42,2.06 -0.94,0.32 -1.72,0.56 -1.73,0.55 -0.01,-0.01 0.65,-0.76 1.46,-1.67 2.12,-2.37 4.3,-4.9 5.08,-5.9 l 0.67,-0.86 0.87,0.47 c 0.47,0.26 1.32,0.78 1.88,1.15 z m -4.91,-1.36 c -0.06,0.08 -0.63,0.8 -1.27,1.61 -0.64,0.81 -2.18,2.78 -3.42,4.38 l -2.26,2.91 -0.07,-0.49 c -0.14,-0.95 -0.65,-2.82 -0.94,-3.45 l -0.29,-0.64 1.44,-0.72 c 1.48,-0.74 4.58,-2.42 6.03,-3.27 0.89,-0.52 0.95,-0.55 0.78,-0.33 z m -12,3.52 c 0.59,0.3 1.14,0.7 1.14,0.82 0,0.19 -3.83,3.15 -3.94,3.04 -0.02,-0.03 0.32,-0.71 0.77,-1.52 0.45,-0.81 0.9,-1.72 1.01,-2.03 0.11,-0.31 0.27,-0.56 0.36,-0.56 0.09,-0.01 0.38,0.11 0.66,0.25 z m 3.26,3.64 c 0.26,0.52 0.54,1.97 0.4,2.1 -0.06,0.05 -1.64,0.8 -3.52,1.67 -1.88,0.86 -4.33,2.02 -5.45,2.58 -1.12,0.56 -1.97,0.95 -1.88,0.88 0.08,-0.07 1.31,-1.11 2.74,-2.29 2.76,-2.29 5.9,-5.03 6.47,-5.64 l 0.35,-0.37 0.34,0.32 c 0.18,0.18 0.43,0.52 0.55,0.75 z m -3.09,-0.03 c -0.27,0.25 -1.75,1.53 -3.27,2.85 -1.52,1.32 -3.35,2.91 -4.06,3.53 -1.44,1.25 -1.44,1.25 0.4,-1.14 1.42,-1.85 2.16,-2.54 4.2,-3.91 0.99,-0.66 2.96,-1.78 3.16,-1.78 0.03,0 -0.16,0.2 -0.43,0.45 z m 14.27,1.26 c 0.07,0.39 0.17,1.6 0.21,2.68 l 0.07,1.97 -0.46,-0.21 c -1.58,-0.73 -6.02,-3.23 -5.85,-3.3 0.97,-0.39 5.76,-1.98 5.82,-1.92 0.04,0.04 0.14,0.39 0.21,0.78 z m -3.76,3.53 c 1.85,1.09 3.38,1.99 3.4,2.01 0.02,0.02 -0.22,0.22 -0.52,0.44 -0.59,0.43 -6.85,3.67 -6.94,3.59 -0.03,-0.03 0.06,-0.57 0.19,-1.19 0.26,-1.26 0.48,-5.02 0.38,-6.21 -0.04,-0.42 -0.02,-0.72 0.04,-0.68 0.04,0.03 1.6,0.95 3.45,2.04 z m -5.11,-0.8 c 0.14,1.17 -0.03,3.52 -0.35,4.75 -0.37,1.44 -0.59,2.04 -0.75,2.09 -0.22,0.07 -1.59,-1.17 -2.42,-2.21 -0.84,-1.05 -1.95,-3.02 -1.78,-3.18 0.1,-0.1 4.98,-2.11 5.14,-2.11 0.04,-0.01 0.11,0.29 0.16,0.66 z m -5.99,2.94 c 0.52,1.07 1.7,2.61 2.99,3.92 0.83,0.84 1.04,1.11 0.91,1.2 -0.58,0.39 -3.18,1.61 -4.82,2.25 -1.99,0.78 -4.58,1.68 -4.64,1.6 -0.02,-0.03 0.57,-1.11 1.32,-2.4 1.62,-2.81 3.67,-6.8 3.67,-7.13 0.01,-0.41 0.18,-0.24 0.57,0.56 z m -3.07,0.07 c -0.03,0.08 -0.28,0.7 -0.55,1.38 -1.15,2.92 -3.39,6.89 -3.89,6.89 -0.39,0 -0.96,-2.31 -1.12,-4.53 l -0.08,-1.12 2.74,-1.38 c 1.51,-0.76 2.79,-1.38 2.85,-1.38 0.06,-0.01 0.08,0.06 0.05,0.14 z m 18.29,2.7 c 0.01,1.68 -0.69,5.75 -1.07,6.16 -0.16,0.17 -1.89,-0.47 -3.46,-1.28 -1.4,-0.72 -3.71,-2.15 -3.71,-2.3 0,-0.04 0.35,-0.22 0.79,-0.4 0.83,-0.35 4.7,-2.42 6.34,-3.39 l 0.94,-0.56 0.08,0.43 c 0.04,0.24 0.08,0.85 0.09,1.34 z m -25.81,1.94 c 0.16,1.33 0.57,2.96 1.08,4.25 0.21,0.53 0.36,0.99 0.33,1.01 -0.2,0.18 -8.43,2.45 -9.52,2.62 l -0.52,0.08 0.08,-0.4 c 0.11,-0.57 0.91,-2.19 1.5,-3.07 0.74,-1.09 2.56,-2.92 3.76,-3.77 0.9,-0.63 3.06,-1.9 3.12,-1.82 0.04,0.01 0.1,0.5 0.17,1.1 z m 18.67,2.81 c 2.54,1.22 3.5,1.64 4.72,2.06 l 0.93,0.32 -0.59,0.3 c -3.33,1.69 -9.23,4.09 -10.75,4.39 -0.34,0.07 -0.39,0.05 -0.32,-0.12 0.26,-0.68 3.78,-7.95 3.85,-7.95 0.04,0 1.02,0.45 2.16,1 z m -4.47,-0.27 c -0.18,0.86 -1.15,3.63 -1.71,4.89 -0.49,1.1 -1.62,3.23 -1.82,3.43 -0.09,0.09 -2.1,-1.04 -3.05,-1.72 -1.07,-0.76 -3.41,-3.02 -3.34,-3.23 0.03,-0.08 1.45,-0.63 3.17,-1.22 3.62,-1.25 5.64,-2 6.23,-2.31 0.56,-0.3 0.61,-0.28 0.52,0.16 z m 10.12,3.82 c -0.03,0.25 -0.24,1.34 -0.46,2.45 -0.69,3.46 -1.53,5.83 -2.06,5.83 -0.74,0 -5.78,-1.22 -7.41,-1.8 -1.11,-0.39 -2.06,-0.84 -2.38,-1.11 -0.2,-0.17 -0.09,-0.23 1.35,-0.82 4.66,-1.9 10.04,-4.33 10.62,-4.79 0.35,-0.28 0.4,-0.24 0.34,0.24 z m -23.6,1.06 c -0.53,0.95 -1.61,2.51 -3.68,5.3 l -1.76,2.38 -0.53,-0.38 c -0.74,-0.53 -1.92,-1.81 -2.41,-2.62 -0.53,-0.87 -0.89,-1.95 -0.93,-2.77 l -0.03,-0.64 0.87,-0.09 c 1.18,-0.12 4.49,-0.8 6.84,-1.42 1.07,-0.28 1.96,-0.49 1.98,-0.48 0.01,0.03 -0.14,0.35 -0.35,0.72 z M 67.03,70 c 0.59,0.42 1.4,0.96 1.81,1.2 l 0.75,0.44 -0.34,0.14 c -0.19,0.08 -2.93,1.08 -6.1,2.22 -5.41,1.95 -5.76,2.07 -5.91,1.87 -0.09,-0.12 -0.15,-0.24 -0.14,-0.28 0.01,-0.04 1.47,-1.93 3.25,-4.2 l 3.23,-4.13 1.19,0.99 c 0.67,0.55 1.67,1.33 2.26,1.75 z m 1.33,6.21 c -1.18,1.77 -2.18,3.26 -2.22,3.3 -0.09,0.12 -1.98,-0.32 -3.39,-0.8 -1.48,-0.5 -3.31,-1.42 -4.03,-2.04 L 58.2,76.22 59.37,75.9 c 4.77,-1.3 11.08,-2.97 11.11,-2.95 0.02,0.02 -0.94,1.49 -2.12,3.26 z m 5.67,-2.68 c 2.53,0.87 4.83,1.36 7.82,1.68 l 0.82,0.09 -2.23,0.8 c -5.56,2.01 -10.07,3.42 -12.33,3.86 -0.64,0.12 -1.22,0.23 -1.28,0.23 -0.06,0 0.39,-0.62 1.01,-1.38 1.7,-2.07 3.54,-4.43 4.03,-5.16 C 72.11,73.3 72.35,73 72.4,73 c 0.06,0.01 0.79,0.24 1.63,0.53 z m 8.29,4.68 c -0.96,2.47 -1.66,3.98 -1.9,4.07 -0.47,0.18 -7.04,-0.78 -9.05,-1.33 -1.33,-0.36 -2.18,-0.71 -1.93,-0.8 0.1,-0.03 1.05,-0.26 2.12,-0.5 3.47,-0.78 8.77,-2.39 10.97,-3.33 0.28,-0.12 0.53,-0.21 0.55,-0.19 0.02,0.02 -0.32,0.95 -0.76,2.08 z"
   id="path3817"
   style="fill:#ff5555"
   inkscape:connector-curvature="0" />
	<path
   d="m 43.47,80.3 c -0.47,0.2 -0.69,0.59 -0.74,1.32 -0.05,0.68 -0.05,0.69 -0.39,0.69 -0.34,0 -0.35,0.02 -0.31,0.5 0.03,0.45 0.07,0.5 0.36,0.54 l 0.32,0.04 v 1.83 1.83 l 0.55,-0.05 0.56,-0.04 0.04,-1.8 0.04,-1.8 h 0.82 0.82 v 1.32 c 0,1.64 0.17,2.07 0.88,2.31 0.32,0.11 0.62,0.13 0.94,0.06 0.45,-0.09 0.47,-0.12 0.51,-0.6 l 0.04,-0.51 -0.39,0.07 c -0.68,0.12 -0.72,0.04 -0.7,-1.62 l 0.01,-1.02 h 0.34 c 0.59,0 0.72,-0.11 0.72,-0.6 v -0.46 h -0.53 -0.53 v -0.44 c 0,-0.65 -0.11,-0.76 -0.72,-0.72 l -0.52,0.03 -0.04,0.56 -0.04,0.56 H 44.7 43.88 v -0.4 c 0,-0.55 0.29,-0.82 0.79,-0.72 0.38,0.07 0.39,0.07 0.39,-0.32 0,-0.21 -0.07,-0.46 -0.14,-0.54 -0.16,-0.14 -1.1,-0.16 -1.45,-0.02 z"
   id="path3819"
   style="fill:#808080"
   inkscape:connector-curvature="0" />
	<path
   d="m 17.41,80.49 c -0.51,0.36 -0.26,1.11 0.38,1.11 0.66,0 0.78,-0.09 0.78,-0.6 -0.01,-0.65 -0.59,-0.91 -1.16,-0.51 z"
   id="path3821"
   style="fill:#808080"
   inkscape:connector-curvature="0" />
	<path
   d="m 8.75,80.81 c -0.18,0.13 -0.2,0.43 -0.17,3.15 l 0.03,3 0.56,0.04 0.56,0.04 v -2.61 c 0,-1.44 0.03,-2.59 0.06,-2.56 0.04,0.03 0.38,0.98 0.77,2.11 0.39,1.13 0.79,2.28 0.89,2.56 l 0.19,0.51 0.59,-0.05 0.59,-0.04 0.9,-2.5 0.9,-2.5 0.06,2.5 c 0.04,1.38 0.08,2.52 0.09,2.54 0.01,0.02 0.28,0.02 0.58,0 l 0.56,-0.04 0.03,-2.99 c 0.02,-2.11 -0.01,-3.04 -0.11,-3.16 -0.21,-0.26 -1.54,-0.21 -1.78,0.06 -0.1,0.12 -0.52,1.09 -0.92,2.15 -0.4,1.06 -0.76,1.97 -0.8,2.02 -0.04,0.05 -0.39,-0.8 -0.78,-1.88 -0.39,-1.1 -0.82,-2.08 -0.97,-2.23 -0.21,-0.21 -0.39,-0.27 -0.95,-0.27 -0.37,0 -0.77,0.07 -0.88,0.15 z"
   id="path3823"
   style="fill:#808080"
   inkscape:connector-curvature="0" />
	<path
   d="m 20.87,82.31 c -0.86,0.28 -1.37,1.17 -1.37,2.42 0,1.4 0.53,2.16 1.65,2.35 0.51,0.09 1.38,-0.11 1.68,-0.38 0.2,-0.18 0.29,-0.85 0.13,-1 -0.04,-0.04 -0.26,0.03 -0.49,0.16 -0.85,0.46 -1.48,0.2 -1.68,-0.69 -0.13,-0.59 0.01,-1.35 0.32,-1.68 0.25,-0.27 0.87,-0.29 1.35,-0.04 0.45,0.23 0.58,0.15 0.58,-0.37 0,-0.29 -0.07,-0.45 -0.28,-0.58 -0.36,-0.25 -1.42,-0.34 -1.89,-0.19 z"
   id="path3825"
   style="fill:#808080"
   inkscape:connector-curvature="0" />
	<path
   d="m 25.46,82.55 c -0.41,0.36 -0.41,0.36 -0.45,0.09 -0.03,-0.23 -0.11,-0.28 -0.54,-0.31 l -0.5,-0.04 v 2.36 2.36 h 0.59 0.59 v -1.46 c 0,-1.46 0,-1.46 0.35,-1.84 0.29,-0.31 0.42,-0.37 0.77,-0.33 0.44,0.05 0.53,-0.05 0.53,-0.6 0,-0.68 -0.68,-0.8 -1.34,-0.23 z"
   id="path3827"
   style="fill:#808080"
   inkscape:connector-curvature="0" />
	<path
   d="m 28.72,82.33 c -0.95,0.28 -1.53,1.39 -1.41,2.7 0.11,1.21 0.73,1.9 1.85,2.06 1.98,0.27 3.27,-1.35 2.71,-3.39 -0.34,-1.2 -1.7,-1.8 -3.15,-1.37 z m 1.38,0.92 c 0.62,0.33 0.78,1.77 0.27,2.45 -0.32,0.42 -1.03,0.5 -1.46,0.16 -0.26,-0.21 -0.28,-0.31 -0.28,-1.19 0,-0.91 0.02,-0.98 0.33,-1.25 0.34,-0.3 0.78,-0.36 1.14,-0.17 z"
   id="path3829"
   style="fill:#808080"
   inkscape:connector-curvature="0" />
	<path
   d="m 33.58,82.36 c -0.6,0.26 -0.82,0.61 -0.82,1.26 0,0.7 0.22,0.96 1.27,1.46 0.6,0.29 0.73,0.4 0.73,0.65 0,0.21 -0.09,0.33 -0.33,0.41 -0.3,0.1 -0.58,0.05 -1.53,-0.25 -0.18,-0.06 -0.21,-0.01 -0.18,0.39 0.03,0.38 0.1,0.49 0.39,0.63 0.49,0.24 1.67,0.22 2.16,-0.04 0.71,-0.38 0.93,-1.53 0.41,-2.11 -0.12,-0.13 -0.55,-0.4 -0.98,-0.6 -0.78,-0.37 -0.97,-0.64 -0.7,-0.96 0.18,-0.21 0.71,-0.21 1.24,0.01 0.35,0.15 0.42,0.15 0.48,0.01 0.12,-0.32 -0.02,-0.7 -0.31,-0.85 -0.39,-0.21 -1.39,-0.21 -1.83,-0.01 z"
   id="path3831"
   style="fill:#808080"
   inkscape:connector-curvature="0" />
	<path
   d="m 38.35,82.28 c -1.04,0.37 -1.51,1 -1.61,2.12 -0.12,1.38 0.38,2.26 1.46,2.58 1.81,0.53 3.22,-0.52 3.21,-2.39 -0.01,-1.13 -0.52,-1.96 -1.4,-2.26 -0.41,-0.14 -1.34,-0.17 -1.66,-0.05 z m 1.37,1.14 c 0.31,0.26 0.33,0.34 0.33,1.17 0,0.78 -0.03,0.92 -0.29,1.19 -0.37,0.39 -1.07,0.42 -1.42,0.07 -0.3,-0.3 -0.39,-0.69 -0.32,-1.5 0.04,-0.53 0.12,-0.71 0.37,-0.94 0.42,-0.36 0.91,-0.35 1.33,0.01 z"
   id="path3833"
   style="fill:#808080"
   inkscape:connector-curvature="0" />
	<polygon
   points="18.5,82.37 17.88,82.34 17.26,82.3 17.29,84.63 17.32,86.97 17.91,86.97 18.5,86.97 18.5,84.67 "
   id="polygon3835"
   style="fill:#808080" />
	<path
   d="m 11.66,89.91 c -1.51,0.33 -2.65,1.16 -3.25,2.39 -0.37,0.75 -0.39,0.86 -0.39,2.08 0,1.18 0.03,1.36 0.32,1.96 0.63,1.29 1.79,2.2 4.21,3.3 2.64,1.2 3.36,1.94 3.36,3.47 0,1.39 -0.65,2.22 -2.08,2.66 -1.42,0.44 -2.84,0.23 -4.68,-0.69 -0.61,-0.31 -1.16,-0.58 -1.2,-0.6 -0.05,-0.02 -0.16,0.05 -0.27,0.15 -0.22,0.23 -0.26,1.37 -0.05,1.75 0.44,0.83 2.75,1.6 4.76,1.6 3.78,0 6.22,-2.25 6.02,-5.56 -0.04,-0.72 -0.13,-1.07 -0.43,-1.67 -0.59,-1.19 -1.35,-1.81 -3.66,-2.94 -1.07,-0.52 -2.24,-1.15 -2.61,-1.4 -1.46,-0.98 -1.8,-2.65 -0.77,-3.81 0.57,-0.65 1.15,-0.86 2.34,-0.87 1.13,0 1.59,0.12 2.89,0.78 1.12,0.57 1.22,0.52 1.22,-0.59 0,-1 -0.06,-1.09 -1.08,-1.56 -1.35,-0.59 -3.16,-0.77 -4.65,-0.45 z"
   id="path3837"
   style="fill:#808080"
   inkscape:connector-curvature="0" />
	<path
   d="m 27.42,89.84 c -2.23,0.36 -3.95,1.44 -5.1,3.21 -0.58,0.9 -0.9,1.74 -1.2,3.16 -0.33,1.55 -0.25,5 0.14,6.42 0.96,3.49 3.11,5.17 6.79,5.33 1.94,0.08 2.69,-0.06 4.59,-0.87 0.07,-0.03 0.39,0.17 0.71,0.44 1.22,1.06 3.9,2.58 4.84,2.76 0.58,0.11 0.74,-0.08 0.74,-0.9 0,-0.38 -0.03,-0.77 -0.07,-0.88 -0.04,-0.11 -0.6,-0.46 -1.26,-0.79 -1.01,-0.5 -3.03,-1.8 -3.03,-1.95 0,-0.03 0.19,-0.29 0.41,-0.59 0.95,-1.24 1.52,-2.97 1.72,-5.21 0.15,-1.71 0.01,-3.54 -0.38,-4.96 -0.71,-2.57 -2.44,-4.34 -4.88,-5 -0.81,-0.2 -3.13,-0.31 -4.02,-0.17 z m 3.54,2.25 c 1.4,0.52 2.33,1.58 2.87,3.23 0.27,0.83 0.32,1.21 0.37,2.97 0.07,2.36 -0.11,3.5 -0.73,4.82 -0.99,2.12 -3.16,3.18 -5.69,2.79 -3.14,-0.48 -4.52,-2.85 -4.36,-7.5 0.09,-2.67 0.57,-4.07 1.81,-5.25 0.73,-0.7 1.26,-1.01 2.11,-1.22 0.98,-0.26 2.72,-0.18 3.62,0.16 z"
   id="path3839"
   style="fill:#808080"
   inkscape:connector-curvature="0" />
	<path
   d="m 59.29,89.92 c -1.45,0.35 -2.68,1.25 -3.21,2.33 -0.6,1.24 -0.62,2.99 -0.05,4.12 0.67,1.33 1.57,2.02 4.37,3.35 2.12,1.01 2.83,1.6 3.12,2.59 0.34,1.17 -0.1,2.39 -1.08,3.03 -1.53,0.99 -3.71,0.83 -6.04,-0.44 -1.05,-0.57 -1.2,-0.51 -1.2,0.5 0,0.94 0.13,1.22 0.77,1.59 1.97,1.16 5.25,1.31 7.29,0.35 2.46,-1.16 3.57,-4.21 2.41,-6.63 -0.15,-0.31 -0.57,-0.85 -0.95,-1.22 -0.58,-0.57 -1.04,-0.85 -2.98,-1.8 -3.22,-1.58 -3.86,-2.26 -3.67,-3.87 0.1,-0.8 0.52,-1.39 1.26,-1.76 0.51,-0.26 0.79,-0.31 1.57,-0.31 1.16,0 1.63,0.12 2.8,0.72 1,0.51 1.21,0.55 1.32,0.27 0.14,-0.35 0.07,-1.52 -0.1,-1.77 -0.23,-0.32 -1.4,-0.84 -2.39,-1.05 -0.99,-0.21 -2.35,-0.22 -3.24,0 z"
   id="path3841"
   style="fill:#808080"
   inkscape:connector-curvature="0" />
	<path
   d="m 40.96,90.11 c -0.11,0.11 -0.14,2.18 -0.14,8.6 v 8.46 l 0.29,0.29 0.29,0.29 h 4.18 c 3.2,0 4.2,-0.04 4.3,-0.15 0.18,-0.23 0.26,-0.92 0.16,-1.38 l -0.09,-0.41 -3.35,-0.06 -3.35,-0.06 -0.03,-7.77 C 43.2,91.89 43.16,90.13 43.05,90.06 42.8,89.92 41.12,89.95 40.96,90.11 Z"
   id="path3843"
   style="fill:#808080"
   inkscape:connector-curvature="0" />
	<path
   d="m 72.39,94.53 c -0.57,0.09 -1.71,0.54 -2.18,0.86 -1.13,0.77 -1.93,2 -2.38,3.65 -0.28,1.05 -0.28,3.64 0,4.71 0.58,2.19 1.86,3.52 3.9,4.06 0.89,0.23 3.14,0.23 4.24,0 1.04,-0.22 2.12,-0.62 2.32,-0.85 0.19,-0.22 0.18,-1.41 -0.01,-1.6 -0.1,-0.1 -0.41,-0.03 -1.24,0.25 -3.19,1.08 -5.65,0.61 -6.6,-1.26 -0.28,-0.55 -0.54,-1.65 -0.54,-2.27 v -0.33 h 4.05 c 2.56,0 4.18,-0.05 4.41,-0.13 0.52,-0.18 0.66,-0.63 0.57,-1.79 -0.18,-2.3 -0.95,-3.74 -2.46,-4.65 -0.96,-0.58 -2.74,-0.87 -4.08,-0.65 z m 2.16,1.85 c 1.2,0.36 1.94,1.38 2.05,2.79 l 0.06,0.81 h -3.39 -3.39 l 0.08,-0.49 c 0.21,-1.22 0.72,-2.13 1.51,-2.67 0.89,-0.61 2,-0.77 3.08,-0.44 z"
   id="path3845"
   style="fill:#808080"
   inkscape:connector-curvature="0" />
	<path
   d="m 86.14,94.56 c -0.56,0.18 -1.37,0.83 -1.95,1.56 l -0.56,0.72 -0.06,-1.05 -0.06,-1.05 -0.7,-0.04 c -0.39,-0.02 -0.82,-0.01 -0.97,0.03 l -0.27,0.06 v 6.41 c 0,5.74 0.02,6.41 0.19,6.48 0.24,0.09 1.63,0.09 1.86,0 0.17,-0.06 0.19,-0.55 0.19,-4.25 v -4.18 l 0.52,-0.73 c 0.71,-1 1.63,-1.81 2.16,-1.91 0.28,-0.05 0.72,-0.01 1.24,0.12 0.51,0.13 0.85,0.16 0.92,0.09 0.06,-0.06 0.1,-0.54 0.08,-1.04 -0.03,-0.9 -0.05,-0.94 -0.38,-1.09 -0.41,-0.2 -1.76,-0.28 -2.21,-0.13 z"
   id="path3847"
   style="fill:#808080"
   inkscape:connector-curvature="0" />
	<path
   d="m 106.42,94.57 c -0.93,0.16 -2.25,0.84 -2.93,1.52 -1.29,1.29 -1.83,3.07 -1.74,5.71 0.08,2.38 0.52,3.56 1.77,4.73 1.19,1.13 2.45,1.5 4.73,1.43 1.67,-0.06 3.17,-0.39 3.86,-0.85 0.34,-0.23 0.38,-0.32 0.41,-0.9 0.02,-0.35 -0.02,-0.72 -0.08,-0.82 -0.12,-0.19 -0.02,-0.21 -2.01,0.42 -0.81,0.25 -1.24,0.31 -2.24,0.32 -1.98,0.01 -3,-0.52 -3.67,-1.88 -0.28,-0.57 -0.38,-0.97 -0.43,-1.63 l -0.06,-0.87 4.24,-0.03 c 5.09,-0.04 4.75,0.07 4.74,-1.5 -0.01,-2.76 -1.2,-4.68 -3.35,-5.43 -0.78,-0.26 -2.35,-0.37 -3.24,-0.22 z m 2.22,1.82 c 1.17,0.35 1.94,1.39 2.1,2.86 l 0.08,0.73 h -3.39 -3.39 l 0.07,-0.59 c 0.17,-1.44 1.16,-2.68 2.44,-3.07 0.49,-0.15 1.45,-0.11 2.09,0.07 z"
   id="path3849"
   style="fill:#808080"
   inkscape:connector-curvature="0" />
	<path
   d="m 120.32,94.55 c -0.76,0.25 -1.81,1.13 -2.39,2 -0.19,0.29 -0.2,0.27 -0.2,-0.65 0,-0.58 -0.05,-1 -0.14,-1.08 -0.19,-0.19 -1.65,-0.19 -1.84,0 -0.2,0.2 -0.2,12.59 0,12.79 0.19,0.19 1.88,0.19 2.07,0 0.1,-0.1 0.14,-1.22 0.14,-4.27 v -4.13 l 0.44,-0.65 c 0.65,-0.97 1.47,-1.73 2.04,-1.9 0.49,-0.15 0.68,-0.13 1.99,0.21 0.37,0.1 0.48,-0.11 0.48,-0.9 0,-0.88 -0.08,-1.12 -0.45,-1.29 -0.38,-0.17 -1.75,-0.26 -2.14,-0.13 z"
   id="path3851"
   style="fill:#808080"
   inkscape:connector-curvature="0" />
	<path
   d="m 89,94.86 c -0.12,0.15 0.24,1.25 2.06,6.33 1.21,3.38 2.3,6.25 2.42,6.38 0.45,0.46 2.68,0.35 2.88,-0.14 0.15,-0.39 4.28,-11.86 4.36,-12.13 0.14,-0.47 -0.11,-0.61 -1.12,-0.61 -0.59,0 -0.96,0.05 -1.03,0.15 -0.06,0.08 -0.9,2.47 -1.86,5.31 -0.96,2.84 -1.78,5.12 -1.83,5.06 -0.05,-0.05 -0.87,-2.37 -1.82,-5.16 -0.95,-2.79 -1.79,-5.13 -1.86,-5.22 -0.18,-0.23 -2.02,-0.2 -2.2,0.03 z"
   id="path3853"
   style="fill:#808080"
   inkscape:connector-curvature="0" />
</g>
</svg>